<?xml version="1.0" encoding="UTF-8"?>
<svg version="1.1" viewBox="0 0 2200 2200" width="32" height= "32" xmlns="http://www.w3.org/2000/svg">
<path transform="translate(0)" d="m0 0h2200v2200h-2200v-2200z" fill="none"/>
<path transform="translate(1277,250)" d="m0 0c5.7457-0.26082 10.643 0.66531 16.188 2.125 0.86569 0.22228 1.7314 0.44457 2.6233 0.67358 9.4747 2.4707 18.837 5.3059 28.189 8.2014 1.1357 0.34934 2.2713 0.69867 3.4414 1.0586 2.0307 0.62504 4.0607 1.2526 6.0898 1.8828 2.7456 0.83792 5.4948 1.6554 8.25 2.4609 8.4876 2.4901 16.851 5.048 25.07 8.3398 3.4026 1.3593 6.8336 2.6208 10.273 3.8828 43.752 16.318 86.94 36.068 126.88 60.375 0.81372 0.49476 1.6274 0.98952 2.4658 1.4993 12.372 7.5512 24.555 15.34 36.534 23.501 0.59748 0.40702 1.195 0.81404 1.8105 1.2334 3.7491 2.5617 7.474 5.1565 11.189 7.7666 0.54012 0.37802 1.0802 0.75604 1.6367 1.1455 10 7.0105 19.708 14.378 29.363 21.854 0.93658 0.72171 0.93658 0.72171 1.8921 1.458 8.3437 6.4342 16.412 13.131 24.367 20.039 1.7137 1.4792 3.4396 2.9427 5.1709 4.4014 10.483 8.8509 20.623 18.096 30.293 27.832 2.348 2.3619 4.7316 4.6189 7.2773 6.7695 5.143 4.4494 9.8796 9.1546 14.312 14.312 2.7637 3.2108 5.6737 6.2102 8.6875 9.1875 3.5492 3.5118 6.9197 7.0901 10.164 10.883 2.188 2.5232 4.4489 4.9727 6.7109 7.4297 4.4519 4.8864 8.658 9.9229 12.806 15.068 1.474 1.8095 2.9692 3.6 4.4678 5.3892 9.0162 10.789 17.531 21.897 25.852 33.23 0.59265 0.80711 1.1853 1.6142 1.7959 2.4458 6.6225 9.0439 13.089 18.158 19.204 27.554 0.98401 1.4924 1.9684 2.9846 2.9531 4.4766 32.78 49.834 59.741 103.13 80.547 159.02 0.39719 1.0666 0.79438 2.1332 1.2036 3.2322 2.3305 6.3603 4.4162 12.764 6.376 19.248 1.6591 5.4432 3.5099 10.819 5.3501 16.203 2.668 7.8243 5.1944 15.674 7.4453 23.629 0.21511 0.74629 0.43022 1.4926 0.65186 2.2615 2.1007 7.5906 2.1007 7.5906 1.4731 10.926-1.9141 2.0352-1.9141 2.0352-4.625 4.0625-1.0016 0.77473-2.0032 1.5495-3.0352 2.3477-0.81235 0.62286-0.81235 0.62286-1.6411 1.2583-2.9991 2.3509-5.8759 4.8433-8.7612 7.3315-0.59394 0.51015-1.1879 1.0203-1.7998 1.5459-4.36 3.7553-8.6534 7.5796-12.915 11.446-2.0347 1.838-4.0902 3.6472-6.1602 5.4453-4.2004 3.6573-8.3067 7.415-12.418 11.172-2.1241 1.9201-4.2737 3.7893-6.457 5.6406-4.5847 3.9703-8.7861 8.3237-13.05 12.631-3.0049 3.0246-6.0109 5.9815-9.2629 8.7437-7.5338 6.3997-14.443 13.59-20.836 21.117-2.895 3.2056-5.9698 6.22-9.0391 9.2578-4.2202 4.1813-8.3411 8.3665-12.184 12.902-2.4305 2.8069-4.9718 5.5079-7.5039 8.2227-8.7185 9.3876-16.969 19.157-25.039 29.105-2.0737 2.5262-4.1813 5.0171-6.3057 7.5005-4.9331 5.7713-9.6601 11.663-14.253 17.71-2.5309 3.3314-5.109 6.6243-7.6902 9.9167-7.8803 10.066-15.538 20.28-23.025 30.642-0.51901 0.71656-1.038 1.4331-1.5728 2.1714-17.628 24.456-33.91 49.984-49.958 75.496-1.4641 2.3244-2.9362 4.6436-4.4106 6.9614-6.402 10.076-12.677 20.227-18.923 30.401-6.3709 10.371-12.818 20.693-19.281 31.007-1.8592 2.9709-3.7131 5.9451-5.5654 8.9204-15.593 25.038-31.595 49.728-48.289 74.043-0.6086 0.8872-1.2172 1.7744-1.8442 2.6885-8.315 12.075-17.192 23.714-26.156 35.312-0.53045 0.68788-1.0609 1.3758-1.6074 2.0845-6.1272 7.9316-12.456 15.663-18.983 23.268-1.4332 1.6755-2.8557 3.3597-4.2764 5.0459-10.777 12.753-22.225 24.775-34.008 36.602-0.8797 0.88438-1.7594 1.7688-2.6658 2.6799-4.4559 4.4449-8.9724 8.749-13.748 12.849-2.1599 1.8561-4.2446 3.7886-6.3364 5.7207-5.613 5.0568-11.502 9.7068-17.492 14.304-1.2526 0.96184-2.5026 1.927-3.75 2.8955-43.724 33.916-92.593 56.39-147.13 65.55-0.93248 0.15743-1.865 0.31485-2.8257 0.47705-48.344 7.9808-98.898 6.2217-147.17-1.4771-1.1821-0.18321-2.3641-0.36642-3.582-0.55518-26.763-4.1657-26.763-4.1657-37.863-7.4175-3.6263-1.0481-7.2678-1.9478-10.937-2.8323-8.1881-1.9783-16.131-4.2418-24.091-7.0076-4.6227-1.5563-9.3041-2.8401-14.016-4.0977-3.7331-1.1585-7.2955-2.564-10.912-4.0393-2.4647-0.99611-4.9409-1.9452-7.4314-2.8748-18.169-6.788-35.98-14.171-53.168-23.176-1.4823-0.76909-1.4823-0.76909-2.9946-1.5537-40.149-20.884-78.418-45.782-111.84-76.466-2.064-1.8889-4.167-3.7199-6.2891-5.543-3.4624-3.0105-6.6757-6.2173-9.8906-9.4883-1.8467-1.814-3.7501-3.4763-5.7344-5.1367-5.3007-4.5685-9.8825-9.816-14.578-14.987-1.7296-1.8877-3.4803-3.7535-5.2388-5.6143-6.7891-7.1846-13.267-14.479-19.434-22.211-0.99146-1.2022-1.9851-2.4026-2.9805-3.6016-38.495-46.508-68.27-100.09-89.324-156.55-0.69238-1.8369-1.4085-3.6647-2.1248-5.4924-3.5669-9.1969-6.3783-18.427-8.9141-27.954-0.67468-2.4653-1.3928-4.914-2.125-7.3628-3.9395-13.213-6.9863-26.486-9.5312-40.035-0.21543-1.1355-0.43087-2.271-0.65283-3.4409-5.6918-30.494-7.6168-60.23-7.6597-91.184-0.0036758-1.2751-0.0073517-2.5501-0.011139-3.8638-0.03313-22.019 1.0632-43.757 4.5736-65.511 0.10638-0.66701 0.21276-1.334 0.32236-2.0212 6.1274-38.137 18.993-74.598 38.428-107.98 0.46551-0.80164 0.93103-1.6033 1.4106-2.4292 16.064-27.442 35.924-54.617 58.796-76.782 1.8623-1.8582 3.5789-3.7938 5.293-5.7891 5.4087-6.2672 11.294-11.893 17.566-17.285 1.8885-1.6749 3.6652-3.4143 5.4336-5.2148 3.6629-3.712 7.5415-7.1079 11.5-10.5 1.0198-0.88379 2.0393-1.7679 3.0586-2.6523 19.514-16.887 39.945-32.361 60.941-47.348 0.75168-0.53818 1.5034-1.0764 2.2778-1.6309 37.541-26.816 77.132-50.78 116.37-75.001 11.718-7.2346 23.399-14.524 35.031-21.897 2.306-1.4585 4.6157-2.9109 6.9268-4.3613 12.562-7.8903 25.005-15.956 37.398-24.109 1.0135-0.66612 2.0271-1.3322 3.0713-2.0186 12.435-8.1866 24.723-16.518 36.71-25.349 2.3478-1.7282 4.7026-3.4465 7.0581-5.1641 8.9599-6.5482 17.797-13.219 26.478-20.133 2.3485-1.8639 4.7117-3.7088 7.074-5.5552 9.6645-7.5613 19.133-15.327 28.422-23.345 3.468-2.987 6.9826-5.8937 10.562-8.7476 5.5148-4.469 10.653-9.3063 15.792-14.197 0.9593-0.91205 0.9593-0.91205 1.938-1.8425 0.55841-0.53448 1.1168-1.069 1.6921-1.6196 1.9579-1.8036 3.9472-3.5555 5.9561-5.3018 4.1093-3.585 8.1137-7.2686 12.082-11.008 1.0905-1.0274 1.0905-1.0274 2.203-2.0756 7.881-7.4621 15.576-15.107 23.24-22.792 2.376-2.3814 4.7573-4.7573 7.1392-7.1328 1.5407-1.5413 3.0811-3.083 4.6211-4.625 0.698-0.69597 1.396-1.3919 2.1151-2.109 3.9236-3.9422 7.6751-7.9825 11.302-12.2 2.4058-2.7823 4.9127-5.4682 7.4186-8.1601 1.046-1.1298 2.0915-2.2601 3.1367-3.3906 0.76063-0.82274 0.76063-0.82274 1.5366-1.6621 5.9477-6.4419 11.66-12.998 17.17-19.818 3.0606-3.6947 6.2804-7.2304 9.5312-10.758 1.7978-1.8806 1.7978-1.8806 2.75-3.9961z" fill="#ABFE00"/>
<path transform="translate(1162,231)" d="m0 0c0.75426 0.060344 1.5085 0.12069 2.2856 0.18286 8.1933 0.6584 16.383 1.3621 24.566 2.1335 1.7144 0.16158 1.7144 0.16158 3.4634 0.32642 2.6851 0.35718 2.6851 0.35718 4.6851 1.3572-1.34 3.0068-2.7985 4.9976-5.1875 7.25-2.4456 2.3706-4.7379 4.775-6.9375 7.375-3.2801 3.8144-6.8003 7.3406-10.375 10.875-3.4285 3.39-6.8226 6.7519-9.9375 10.438-7.1282 8.3756-15.182 16.195-23.574 23.293-2.6037 2.3173-5.0413 4.7897-7.4883 7.2695-3.6599 3.7041-7.3894 7.2529-11.352 10.633-2.1809 1.8954-4.303 3.8475-6.4207 5.813-5.2115 4.8357-10.549 9.4235-16.091 13.882-2.5609 2.1094-5.008 4.3008-7.4492 6.5469-4.4568 4.0613-9.1171 7.7791-13.879 11.47-3.8004 2.951-7.5128 5.9797-11.184 9.092-6.4935 5.4514-13.267 10.494-20.078 15.539-1.9828 1.4757-3.9542 2.9652-5.9219 4.4609-30.437 23.108-62.755 43.789-95.125 64.062-0.90267 0.56654-1.8053 1.1331-2.7354 1.7168-12.473 7.8282-24.988 15.585-37.537 23.293-11.282 6.9347-22.514 13.947-33.728 20.99-1.2298 0.77223-1.2298 0.77223-2.4844 1.5601-4.6612 2.9297-9.3153 5.8704-13.963 8.8208-1.7982 1.1408-3.5975 2.28-5.3975 3.418-15.94 10.084-31.633 20.485-47.155 31.201-0.90122 0.62149-1.8024 1.243-2.731 1.8833-32.092 22.175-62.99 46.026-91.594 72.585-1.2608 1.1527-2.5339 2.2919-3.813 3.4243-6.5315 5.7934-12.754 11.845-18.913 18.028-1.6414 1.6468-3.2881 3.2881-4.9353 4.929-5.5486 5.5448-10.939 11.164-16.014 17.15-1.0448 1.1919-2.0917 2.382-3.1406 3.5703-6.7858 7.7414-13.31 15.627-19.586 23.787-1.1894 1.5342-2.4025 3.0501-3.6172 4.5645-35.446 44.662-59.964 96.927-73.656 152.08-0.17241 0.6716-0.34482 1.3432-0.52246 2.0352-19.267 75.565-15.072 160.7 2.5225 235.96 0.16468 0.7085 0.32936 1.417 0.49902 2.147 4.078 17.359 9.0228 34.571 14.454 51.552 0.90045 2.8391 1.7347 5.6857 2.5469 8.5508 1.3655 4.6001 3.2195 8.9299 5.1094 13.336 1.9013 4.6677 3.5435 9.4147 5.1594 14.188 1.7918 5.2202 3.9295 10.212 6.2312 15.226 0.68123 1.4994 0.68123 1.4994 1.3762 3.0291 6.7855 14.894 13.751 29.616 21.624 43.971 0.76667 1.4156 0.76667 1.4156 1.5488 2.8599 7.9568 14.671 16.5 28.796 25.792 42.659 1.4604 2.1847 2.9027 4.3795 4.3345 6.583 10.043 15.403 21.163 30.001 32.887 44.157 2.082 2.5228 4.1311 5.0721 6.187 7.6162 3.5893 4.3848 7.3261 8.6113 11.141 12.801 1.8556 2.0446 3.6769 4.1121 5.4844 6.1992 1.2062 1.3769 2.4147 2.7518 3.625 4.125 0.6948 0.78891 1.3896 1.5778 2.1055 2.3906 6.4673 7.1973 13.25 14.073 20.082 20.922 0.47318 0.47576 0.94635 0.95153 1.4339 1.4417 5.0736 5.0955 10.187 10.078 15.647 14.759 2.4022 2.0622 4.7189 4.2134 7.0442 6.3616 5.4024 4.9207 10.989 9.5529 16.688 14.125 1.1202 0.91225 2.24 1.825 3.3594 2.7383 71.271 57.904 155.66 98.032 244.72 119.55 1.8767 0.45397 3.7525 0.91196 5.627 1.375 42.864 10.56 87.336 14.728 131.4 14.648 2.7564-0.0046246 5.5123 0.0022953 8.2686 0.020508 44.434 0.29033 88.298-5.5126 130.63-19.336 0.84095-0.27038 1.6819-0.54076 2.5483-0.81934 43.643-14.135 83.204-37.386 119.45-65.181 0.60054-0.45875 1.2011-0.91749 1.8198-1.3901 16.334-12.513 31.936-26.129 46.352-40.817 1.8949-1.8584 3.8679-3.5752 5.8906-5.293 3.3447-2.8771 6.1756-5.9705 9.0234-9.332 2.2063-2.499 4.5409-4.8271 6.9141-7.168 4.217-4.1791 8.1466-8.4883 12-13 1.0003-1.1493 2.0017-2.2977 3.0039-3.4453 6.4675-7.4125 12.827-14.891 18.996-22.555 0.90861-1.1148 1.8175-2.2294 2.7266-3.3438 7.4915-9.2258 14.587-18.714 21.574-28.326 1.5573-2.1352 3.1278-4.2598 4.7036-6.3813 9.8226-13.309 18.882-27.138 28.008-40.929 2.6439-3.9956 5.2983-7.9839 7.9619-11.966 4.3129-6.4507 8.5636-12.934 12.714-19.491 0.5854-0.92265 1.1708-1.8453 1.7739-2.7959 10.31-16.273 20.473-32.635 30.555-49.05 5.7149-9.298 11.488-18.559 17.284-27.806 2.4457-3.9022 4.8802-7.8111 7.3047-11.727 23.151-37.336 47.628-73.796 74.423-108.62 1.286-1.6715 2.5703-3.3442 3.8525-5.0186 6.8968-9.0033 13.934-17.817 21.38-26.372 2.5211-2.9008 4.9505-5.8677 7.3633-8.8594 3.8024-4.6878 7.8236-9.1298 11.914-13.566 2.3823-2.6583 4.6152-5.3897 6.8359-8.1836 3.7891-4.7028 7.8645-8.9611 12.201-13.152 2.6585-2.5819 5.1584-5.2279 7.5667-8.0461 4.004-4.5965 8.2578-8.9085 12.573-13.212 0.81457-0.81553 1.6291-1.6311 2.4684-2.4713 1.7123-1.713 3.4259-3.4248 5.1407-5.1354 2.606-2.6007 5.2067-5.2067 7.8069-7.8132 1.6735-1.6728 3.3473-3.3454 5.0215-5.0176 0.76795-0.76998 1.5359-1.54 2.3271-2.3333 4.1416-4.1239 8.3703-8.0797 12.798-11.895 1.9674-1.698 3.8718-3.4526 5.7576-5.2405 0.66451-0.62713 1.329-1.2543 2.0137-1.9004 1.3465-1.2759 2.6928-2.552 4.0391-3.8281 3.2211-3.0395 6.4616-6.0527 9.7832-8.9824 0.55486-0.48976 1.1097-0.97953 1.6814-1.4841 1.4475-1.051 1.4475-1.051 3.4475-1.051 1.5005 6.3018 2.5313 12.484 3.2188 18.922 0.10341 0.9395 0.20681 1.879 0.31335 2.847 0.21755 1.9899 0.43255 3.98 0.64514 5.9704 0.31455 2.9342 0.64026 5.867 0.96729 8.7998 2.8965 26.419 4.2132 52.67 4.1134 79.228-0.0080942 2.2735-0.013031 4.5471-0.017349 6.8206-0.11212 51.338-4.0237 102.01-14.241 152.41-0.18144 0.91217-0.36287 1.8243-0.5498 2.7642-2.4294 12.199-5.1179 24.326-8.0127 36.423-0.28077 1.1808-0.56155 2.3616-0.85083 3.5781-1.6175 6.6672-3.4452 13.222-5.5068 19.765-1.2078 3.8801-2.3447 7.7777-3.4783 11.68-2.3702 8.1152-4.9056 16.172-7.5137 24.213-0.72354 2.2336-1.441 4.469-2.1582 6.7046-0.46839 1.4493-0.93713 2.8986-1.4062 4.3477-0.20944 0.65425-0.41888 1.3085-0.63467 1.9826-1.404 4.3063-3.0674 8.4006-4.8888 12.541-0.82388 2.0997-1.6366 4.2039-2.4375 6.3125-9.3086 24.485-19.986 48.211-31.562 71.688-0.74944 1.5374-1.4983 3.0751-2.2461 4.6133-11.702 23.925-25.061 47.176-39.754 69.387-0.39784 0.6036-0.79567 1.2072-1.2056 1.8291-5.8098 8.8087-11.735 17.531-17.794 26.171-0.38092 0.54447-0.76184 1.0889-1.1543 1.6499-18.092 25.806-38.176 50.194-59.316 73.553-1.5971 1.7655-3.1904 3.5345-4.7783 5.3083-7.7631 8.5901-15.899 16.788-24.096 24.963-2.3533 2.3479-4.7012 4.7012-7.0486 7.0549-1.5186 1.5179-3.0374 3.0355-4.5566 4.5527-0.68978 0.69181-1.3796 1.3836-2.0903 2.0964-3.9414 3.9227-7.9827 7.6714-12.199 11.298-2.5857 2.2362-5.0728 4.5687-7.5743 6.8987-4.6431 4.2893-9.4219 8.3518-14.348 12.316-2.5583 2.0797-5.0717 4.1995-7.5757 6.3435-6.3519 5.4352-12.852 10.62-19.528 15.654-1.8073 1.3646-3.6078 2.738-5.4082 4.1118-10.568 8.0311-21.391 15.679-32.328 23.199-0.64759 0.44553-1.2952 0.89106-1.9624 1.3501-18.223 12.477-37.092 23.884-56.436 34.529-3.6793 2.0282-7.3023 4.1223-10.895 6.3008-5.8777 3.558-11.993 6.5708-18.164 9.5776-2.8112 1.3738-5.6141 2.764-8.418 4.1528-12.625 6.209-25.361 12.035-38.312 17.527-0.67457 0.28692-1.3491 0.57383-2.0442 0.86945-9.8267 4.1687-19.755 7.9979-29.768 11.693-1.3795 0.51662-2.7588 1.034-4.1377 1.5522-16.814 6.3133-33.696 12.564-51.073 17.147-3.5231 0.93084-7.0103 1.9635-10.499 3.0143-9.9536 2.9861-19.984 5.4904-30.102 7.849-0.833 0.19548-1.666 0.39097-2.5242 0.59238-12.175 2.8559-24.348 5.6562-36.663 7.8451-0.88059 0.15775-1.7612 0.3155-2.6685 0.47803-7.0978 1.2577-14.21 2.4093-21.332 3.522-1.0354 0.165-2.0709 0.33-3.1377 0.5-16.523 2.5958-33.079 4.2603-49.737 5.6875-0.97672 0.084675-1.9534 0.16935-2.9597 0.25659-21.456 1.8419-42.88 2.7674-64.415 2.7434-0.93956-2.7191e-4 -1.8791-5.4382e-4 -2.8471-8.2397e-4 -17.639-0.023166-35.173-0.69927-52.76-2.0252-2.1914-0.16511-4.383-0.32574-6.5748-0.48615-19.971-1.479-39.769-3.617-59.568-6.6753-1.204-0.18289-2.408-0.36577-3.6484-0.5542-43.699-6.7039-86.358-17.72-128.35-31.446-0.80357-0.26232-1.6071-0.52465-2.4351-0.79492-10.606-3.4718-20.966-7.3319-31.315-11.506-2.8031-1.1276-5.615-2.2267-8.4375-3.3047-34.454-13.282-67.914-29.863-99.812-48.395-1.5143-0.87245-3.0286-1.7448-4.543-2.6172-24.081-13.947-47.729-29.08-69.767-46.085-2.583-1.9832-5.2012-3.9186-7.8154-5.8604-9.6183-7.2235-19.054-14.64-28.196-22.459-3.3047-2.8262-6.657-5.5758-10.054-8.2908-5.8419-4.7503-11.289-9.8901-16.754-15.062-2.684-2.5382-5.4254-4.9941-8.1992-7.4336-7.4149-6.6516-14.39-13.761-21.423-20.812-2.4381-2.4435-4.8815-4.8815-7.3254-7.3191-1.5726-1.5732-3.1449-3.1468-4.7168-4.7207-0.71996-0.71793-1.4399-1.4359-2.1817-2.1756-3.9945-4.0128-7.8206-8.1186-11.512-12.413-2.232-2.5831-4.5618-5.0662-6.8886-7.5642-4.219-4.5718-8.2365-9.26-12.137-14.109-1.8589-2.2995-3.7344-4.5773-5.6328-6.8438-9.0187-10.791-17.526-21.905-25.855-33.234-0.56074-0.75926-1.1215-1.5185-1.6992-2.3008-8.8286-11.974-17.165-24.246-25.301-36.699-0.56832-0.86577-1.1366-1.7315-1.7222-2.6235-9.4129-14.381-18.056-29.153-26.46-44.137-1.6214-2.8904-3.2534-5.7746-4.8877-8.6577-20.251-35.976-36.121-74.73-49.93-113.58-0.40501-1.1315-0.81001-2.2629-1.2273-3.4287-5.7442-16.091-10.788-32.174-15.032-48.731-0.86652-3.3227-1.7986-6.6233-2.7454-9.9238-18.891-65.974-25.221-135.18-25.245-203.54-5.8914e-4 -0.7591-0.0011783-1.5182-0.0017853-2.3003-0.012603-23.09 0.48061-45.954 3.0207-68.924 0.32859-3.0585 0.62047-6.1202 0.91393-9.1823 2.247-23.383 5.1186-46.687 10.556-69.57 0.80788-3.6076 1.4716-7.2236 2.1204-10.863 1.8375-10.141 4.3691-20.109 6.8906-30.098 0.36799-1.4636 0.36799-1.4636 0.74341-2.9567 3.6023-14.299 7.4-28.469 12.007-42.481 0.60826-1.8899 1.2165-3.7798 1.8241-5.67 17.942-55.678 42.274-109.07 72.176-159.33 1.068-1.8097 2.1357-3.6196 3.2031-5.4297 5.9646-10.074 12.184-19.911 18.797-29.57 0.87005-1.2824 1.7398-2.5649 2.6094-3.8477 20.973-30.83 44.075-59.91 69.066-87.574 1.5448-1.7136 3.0839-3.4323 4.6172-5.1562 4.1403-4.6463 8.3736-9.1273 12.809-13.492 1.8841-1.9151 3.6471-3.893 5.3984-5.9297 5.3496-6.1987 11.162-11.757 17.367-17.086 2.4721-2.2186 4.7984-4.5511 7.1328-6.9141 3.5331-3.5708 7.1337-6.9655 10.949-10.23 2.3264-2.0074 4.5927-4.0742 6.8633-6.1445 4.3188-3.8974 8.7651-7.598 13.289-11.254 2.5277-2.0678 5.0123-4.1773 7.4863-6.3088 7.2124-6.1985 14.732-11.908 22.381-17.555 1.9773-1.4676 3.9416-2.9507 5.9019-4.4409 37.624-28.572 78.082-52.627 120.13-74.066 1.4766-0.759 2.9532-1.5181 4.4297-2.2773 23.802-12.156 48.449-22.621 73.57-31.723 1.04-0.37802 2.0799-0.75604 3.1514-1.1455 27.191-9.8636 27.191-9.8636 40.849-13.854 0.74604-0.22075 1.4921-0.4415 2.2607-0.66895 50.268-14.835 101.31-25.047 153.48-30.111 1.5109-0.14709 3.0216-0.29639 4.5321-0.44788 44.308-4.4399 89.351-4.3718 133.73-0.77216z" fill="#ABFE00"/>
<path transform="translate(1199.6 234.6)" d="m0 0c1.0454 0.11698 2.0909 0.23396 3.168 0.35449 1.2465 0.13729 2.493 0.27457 3.7773 0.41602 1.471 0.20376 2.941 0.41456 4.4102 0.63086 1.2455 0.1826 1.2455 0.1826 2.5161 0.3689 5.8172 0.87539 11.616 1.8452 17.412 2.8499 3.0367 0.52518 6.0755 1.0368 9.1147 1.5469 13.434 2.2852 26.704 5.0677 39.957 8.2344l-3 1c-1.0596 1.8792-1.0596 1.8792-2 4-0.86889 1.1374-1.779 2.2442-2.7227 3.3203-0.53416 0.61287-1.0683 1.2257-1.6187 1.8572-0.56799 0.64268-1.136 1.2854-1.7212 1.9475-0.58346 0.66653-1.1669 1.3331-1.7681 2.0198-4.032 4.596-8.1052 9.1544-12.212 13.683-1.7412 1.9323-3.4473 3.8885-5.1445 5.8594-4.0664 4.6759-8.3252 9.1736-12.575 13.682-2.8606 3.0439-5.6672 6.1132-8.3843 9.2861-4.14 4.7415-8.5506 9.1852-13.006 13.629-0.85896 0.85992-1.7179 1.7198-2.6029 2.6058-1.8065 1.8072-3.6143 3.6131-5.4232 5.4179-2.7509 2.7455-5.4964 5.4964-8.2415 8.2478-1.7647 1.764-3.5296 3.5277-5.2949 5.291-1.2176 1.2206-1.2176 1.2206-2.4597 2.4658-4.2492 4.2319-8.5754 8.3049-13.121 12.217-1.9499 1.6802-3.8365 3.4174-5.7048 5.1878-0.66 0.62262-1.32 1.2452-2 1.8867-0.66 0.6252-1.32 1.2504-2 1.8945-5.2329 4.9569-10.55 9.7832-16 14.5-1.2256 1.07-2.4508 2.1403-3.6758 3.2109-6.3666 5.5456-12.761 11.038-19.324 16.352-2.3441 1.9046-4.6755 3.8216-7 5.75-7.9186 6.566-15.883 13.023-24.087 19.231-2.2485 1.7119-4.483 3.4416-6.7178 5.1714-10.14 7.8237-20.421 15.314-31.043 22.469-3.2949 2.2209-6.5222 4.5124-9.7148 6.8789-7.6162 5.5984-15.542 10.745-23.438 15.938-0.90927 0.59796-1.8185 1.1959-2.7554 1.812-12.245 8.0411-24.557 15.967-36.965 23.754-2.2597 1.4215-4.5147 2.8503-6.7681 4.2817-10.126 6.4284-20.319 12.741-30.541 19.016-10.371 6.3711-20.694 12.818-31.008 19.281-2.9709 1.8592-5.9451 3.7131-8.9204 5.5654-29.894 18.617-59.48 37.671-88.043 58.289-0.75539 0.54431-1.5108 1.0886-2.2891 1.6494-10.619 7.6744-20.936 15.629-31.035 23.974-2.2439 1.8426-4.5215 3.6411-6.8013 5.439-11.118 8.8905-21.635 18.389-31.979 28.16-1.8818 1.765-3.7799 3.5103-5.6846 5.2505-8.3045 7.6084-16.126 15.534-23.701 23.869-1.3234 1.4535-2.6599 2.895-3.9985 4.3345-5.7926 6.2865-11.021 12.96-16.251 19.712-1.6977 2.1704-3.4497 4.2948-5.1982 6.4243-20.191 25.28-37.348 54.031-49.062 84.188-0.30245 0.75813-0.60489 1.5163-0.9165 2.2974-4.8293 12.134-8.3255 24.437-11.436 37.112-0.55775 2.2297-1.1489 4.4438-1.769 6.6567-2.2456 8.2396-3.719 16.496-5.0039 24.934-0.15872 1.0245-0.31743 2.049-0.48096 3.1045-3.0919 21.36-3.7717 42.714-3.7065 64.271 0.0024875 1.3195 0.004975 2.639 0.0075378 3.9984 0.12226 48.753 6.7751 96.138 21.449 142.69 1.457 4.6269 2.818 9.2647 4.1055 13.941 1.3019 4.6334 2.8425 9.0475 4.7031 13.484 1.1457 2.7532 2.1889 5.5353 3.2344 8.3281 20.638 53.597 49.594 105.27 86.812 149.19 0.91566 1.0896 1.831 2.1795 2.7461 3.2695 8.0143 9.528 16.21 18.857 24.659 28.002 1.112 1.2052 2.2218 2.4124 3.3301 3.6211 8.8284 9.7142 8.8284 9.7142 18.487 18.58 1.9809 1.7022 3.7727 3.5267 5.5898 5.4023 3.9117 3.973 8.1426 7.4358 12.488 10.922 2.3514 1.9192 4.5924 3.8983 6.8242 5.9531 6.2001 5.5625 12.891 10.505 19.548 15.501 1.5372 1.1552 3.0714 2.3143 4.6025 3.4775 42.159 32.024 90.68 58.265 140.79 75.595 1.86 0.65068 3.7075 1.3366 5.5542 2.0239 7.9251 2.9415 15.933 5.2685 24.086 7.4688 3.5495 0.96324 7.0452 2.0451 10.543 3.1836 8.5165 2.6729 17.259 4.4423 25.969 6.3579 2.8401 0.65574 5.6505 1.3938 8.4685 2.1382 7.3354 1.8484 14.77 2.9371 22.25 4.0039 0.73362 0.10639 1.4672 0.21278 2.2231 0.32239 27.139 3.9257 54.225 6.3977 81.652 6.3651 0.94393-6.0425e-4 1.8879-0.0012085 2.8604-0.0018311 39.529-0.068412 79.852-3.9503 117.33-17.186 0.80937-0.28182 1.6187-0.56364 2.4526-0.854 35.531-12.506 68.181-31.662 97.547-55.146 0.63003-0.5 1.2601-0.99999 1.9092-1.5151 8.4326-6.7025 16.593-13.586 24.442-20.964 2.0751-1.9147 4.1905-3.7823 6.301-5.658 5.2027-4.6739 10.183-9.5464 15.117-14.502 1.4241-1.4295 2.8535-2.8535 4.2834-4.2771 5.1929-5.2002 10.185-10.488 14.947-16.084 1.0101-1.1563 2.0218-2.3113 3.0352-3.4648 13.017-14.905 25.397-30.169 37.152-46.091 1.6844-2.2705 3.3872-4.5254 5.0981-6.7759 10.184-13.482 19.448-27.578 28.752-41.673 2.6318-3.9869 5.276-7.9652 7.9317-11.936 4.3146-6.4522 8.5669-12.937 12.719-19.496 0.87483-1.3785 0.87483-1.3785 1.7673-2.7849 11.863-18.722 23.535-37.563 35.177-56.422 6.2033-10.048 12.423-20.084 18.746-30.057 2.4532-3.8696 4.9017-7.7419 7.3318-11.626 7.0044-11.18 14.218-22.207 21.553-33.172 1.8034-2.6959 3.603-5.3943 5.4021-8.093 18.941-28.384 18.941-28.384 28.209-40.846 0.58314-0.78729 1.1663-1.5746 1.7671-2.3857 9.4436-12.715 19.114-25.235 29.059-37.562 1.7993-2.2369 3.5786-4.4896 5.3613-6.7397 4.3915-5.4894 8.9483-10.837 13.505-16.188 1.4267-1.6802 2.8465-3.3659 4.2642-5.0537 7.796-9.2753 15.882-18.258 24.086-27.174 2.8527-3.1031 5.6632-6.2395 8.4565-9.396 4.1538-4.6394 8.5423-9.0101 12.968-13.386 2.8302-2.8098 5.5751-5.632 8.1567-8.676 6.75-7.9283 14.338-15.271 22.277-21.996 3.1956-2.8811 6.1966-5.9465 9.2227-9.0039 4.2412-4.2808 8.4888-8.4685 13.086-12.371 2.3023-1.9593 4.5448-3.9785 6.7891-6.0039 0.84434-0.76055 1.6887-1.5211 2.5586-2.3047 1.6834-1.522 3.3632-3.0479 5.0391-4.5781 5.0473-4.5914 10.211-8.9788 15.516-13.27 4.1394-3.3985 8.1929-6.8935 12.241-10.4 0.56235-0.48557 1.1247-0.97115 1.7041-1.4714 0.49556-0.42974 0.99113-0.85948 1.5017-1.3022 1.8072-1.5007 3.6763-2.9027 5.5647-4.2993 4.8616 19.616 9.4327 39.24 13.062 59.125 0.22721 1.2367 0.22721 1.2367 0.45901 2.4984 0.42685 2.3355 0.84713 4.6721 1.2636 7.0095 0.12456 0.69001 0.24911 1.38 0.37744 2.0909 0.55347 3.175 0.8374 6.0353 0.8374 9.2762-1.8086 1.7969-1.8086 1.7969-4.4375 3.75-5.9737 4.6667-11.445 9.7354-16.931 14.962-0.66975 0.63776-1.3395 1.2755-2.0295 1.9326-1.0802 1.0294-1.0802 1.0294-2.1821 2.0796-2.2295 2.0972-4.4854 4.1628-6.7484 6.2237-8.3094 7.5874-16.276 15.505-24.221 23.472-2.339 2.3444-4.6834 4.6834-7.0283 7.022-1.5133 1.514-3.0264 3.0283-4.5391 4.543-0.68867 0.68665-1.3773 1.3733-2.0869 2.0807-3.9007 3.9194-7.6213 7.9375-11.212 12.143-1.5814 1.7891-3.2368 3.451-4.9587 5.1042-2.8307 2.7805-5.3279 5.719-7.8125 8.8125-3.4501 4.2906-7.0505 8.3614-10.812 12.375-4.4469 4.754-8.6586 9.6269-12.734 14.707-2.0245 2.4957-4.0983 4.9399-6.1963 7.3738-5.0461 5.8672-9.775 11.91-14.379 18.129-3.7945 5.1211-7.6916 10.152-11.627 15.165-24.225 31.01-45.717 64.343-66.551 97.705-1.6669 2.6683-3.3392 5.3332-5.0117 7.998-6.5485 10.444-13.048 20.918-19.5 31.422-7.601 12.375-15.276 24.702-23 37-0.77223 1.2298-0.77223 1.2298-1.5601 2.4844-2.9325 4.6657-5.8763 9.324-8.8296 13.977-1.1274 1.7776-2.2529 3.5563-3.377 5.3359-23.411 37.045-48.111 73.72-76.034 107.54-1.4433 1.7483-2.8785 3.5034-4.3047 5.2656-11.836 14.617-24.245 28.841-37.602 42.094-2.3233 2.3091-4.5202 4.6504-6.6055 7.1797-3.419 3.9697-7.2126 7.3742-11.141 10.832-2.4789 2.2317-4.8319 4.5417-7.1719 6.918-3.965 4.0064-8.0892 7.7178-12.375 11.375-1.0527 0.91597-2.1047 1.8327-3.1562 2.75-7.7317 6.7216-15.64 13.114-23.844 19.25-0.70786 0.53383-1.4157 1.0677-2.145 1.6177-37.175 28.006-78.214 51.019-122.85 64.76-1.9617 0.60733-3.9129 1.2417-5.8647 1.8799-18.355 5.854-37.549 9.2363-56.582 11.992-1.5571 0.22635-1.5571 0.22635-3.1458 0.45728-3.4683 0.47519-6.9389 0.89334-10.417 1.2927-1.1041 0.1308-1.1041 0.1308-2.2305 0.26425-16.359 1.8878-32.694 2.0974-49.141 2.0538-2.1579-0.0056361-4.3158-0.0084601-6.4737-0.011082-42.738-0.07541-84.368-4.1402-126.15-13.307-1.0719-0.23332-2.1437-0.46664-3.248-0.70703-33.232-7.2897-66.333-17.139-97.752-30.293-0.77634-0.31969-1.5527-0.63938-2.3525-0.96875-57.3-23.645-111.09-55.206-158.65-95.031-0.50451-0.41959-1.009-0.83918-1.5288-1.2715-7.4492-6.1983-14.68-12.582-21.778-19.179-1.2741-1.1661-2.5606-2.3186-3.853-3.4644-6.3713-5.6552-12.455-11.545-18.464-17.579-1.5689-1.5743-3.1432-3.1432-4.718-4.7117-4.9003-4.8971-9.7061-9.8342-14.211-15.103-2.0456-2.3921-4.1865-4.6929-6.322-7.0046-4.9206-5.4023-9.5548-10.988-14.125-16.688-0.93587-1.1552-1.8721-2.3101-2.8086-3.4648-25.171-31.13-47.081-64.369-66.191-99.535-0.65355-1.1942-0.65355-1.1942-1.3203-2.4126-23.49-43.09-40.774-89.905-52.189-137.58-0.5236-2.145-1.0762-4.2813-1.6309-6.4185-7.5761-29.715-11.276-60.088-13.859-90.59-0.086206-0.99918-0.17241-1.9984-0.26123-3.0278-0.4595-5.6583-0.65027-11.297-0.73877-16.972-0.025781-1.3065-0.051562-2.6129-0.078125-3.959-1.5325-83.549 13.8-164.92 79.078-270.04 0.49355-0.67901 0.9871-1.358 1.4956-2.0576 6.2333-8.5558 12.755-16.752 19.719-24.724 2.4268-2.782 4.7399-5.6393 7.0352-8.5312 10.221-12.526 21.846-23.875 33.25-35.312 0.51233-0.51501 1.0247-1.03 1.5525-1.5606 5.2678-5.2887 10.566-10.495 16.24-15.352 2.396-2.0521 4.703-4.197 7.02-6.3374 4.8768-4.4432 9.9026-8.6435 15.037-12.784 1.8988-1.5432 3.7829-3.1032 5.666-4.6655 8.5294-7.0749 17.11-14.035 25.984-20.676 0.68755-0.51498 1.3751-1.03 2.0835-1.5605 31.603-23.607 64.544-45.424 97.917-66.439 0.97759-0.61601 1.9552-1.232 2.9624-1.8667 13.535-8.5169 27.147-16.909 40.772-25.282 14.644-8.9991 29.251-18.054 43.763-27.264 2.683-1.7019 5.3681-3.4005 8.0532-5.0991 9.8366-6.2311 19.616-12.527 29.274-19.032 2.5914-1.7351 5.1936-3.4534 7.7964-5.1714 19.716-13.033 38.654-26.871 57.379-41.285 0.81598-0.62616 1.632-1.2523 2.4727-1.8975 8.6919-6.6744 17.26-13.443 25.574-20.583 2.8455-2.4277 5.7323-4.7927 8.6406-7.1445 4.3926-3.5726 8.5964-7.3085 12.777-11.125 2.6353-2.3389 5.3479-4.5472 8.0977-6.75 4.3993-3.5566 8.3874-7.3413 12.332-11.391 1.9273-1.9308 3.9049-3.7161 5.9805-5.4844 3.3706-2.8871 6.51-5.9675 9.625-9.125 3.0328-3.074 6.0794-6.08 9.375-8.875 7.9817-6.8297 15.4-14.46 22.188-22.469 2.6978-3.0024 5.5681-5.8187 8.4375-8.6562 8.2104-8.0445 8.2104-8.0445 15.228-17.108 2.2717-2.3916 2.2717-2.3916 4.9163-2.793z" fill="#E5F2BC"/>
<path transform="translate(1680.7 1940.1)" d="m0 0c0.90371 0.15018 1.8074 0.30035 2.7385 0.45508 4.353 0.80503 8.0577 1.6107 11.574 4.4824v3c-8.1844 3.0225-16.038 4.9283-24.688 6-1.2837 0.16242-2.5675 0.32484-3.8901 0.49219-85.376 10.467-172.46 11.298-303.29 14.462-2.0225 0.043056-4.045 0.08653-6.0675 0.13003-1.2158 0.026043-2.4317 0.052086-3.6844 0.078918-1.0299 0.022065-2.0597 0.04413-3.1208 0.066864-14.397 0.29477-28.794 0.52434-43.192 0.7387-2.0754 0.03099-4.1509 0.062332-6.2263 0.093717-63.058 0.94923-126.11 1.095-189.17 1.0657-9.073-0.003771-18.146-0.0024064-27.219 0.0018023-62.464 0.02819-124.92-0.13749-187.37-1.0985-1.9969-0.030623-3.9938-0.060688-5.9907-0.09073-15.3-0.23022-30.599-0.50257-45.897-0.81609-2.0692-0.041782-4.1383-0.08355-6.2075-0.12531-198.67-4.0366-198.67-4.0366-301.98-14-0.6833-0.071865-1.3666-0.14373-2.0706-0.21777-9.7432-1.0455-21.035-2.3352-29.929-6.7822 0.25-1.875 0.25-1.875 1-4 41.901-25.075 201.97-17.184 1174.7-3.9375z" fill="#D4E1DE"/>
</svg>
